{"extensionsUsed" : ["KHR_materials_specular", "KHR_materials_ior"], "accessors" : [{"bufferView" : 0, "byteOffset" : 0, "componentType" : 5123, "count" : 21834, "type" : "SCALAR", "max" : [21818], "min" : [0]}, {"bufferView" : 1, "byteOffset" : 0, "componentType" : 5126, "count" : 21819, "type" : "VEC3", "max" : [398.2965393066406, 403.474609375, 124.5281753540039], "min" : [-398.29608154296875, -448.6454772949219, -4.541782855987549], "name" : "POSITION"}, {"bufferView" : 1, "byteOffset" : 12, "componentType" : 5126, "count" : 21819, "type" : "VEC3", "max" : [1.0000044107437134, 1.0000044107437134, 1.0000044107437134], "min" : [-1.0000044107437134, -1.0000044107437134, -1.0000044107437134], "name" : "NORMAL"}, {"bufferView" : 1, "byteOffset" : 24, "componentType" : 5126, "count" : 21819, "type" : "VEC2", "max" : [7.707030773162842, 1.019531011581421], "min" : [-2.371093988418579, -1.9990229606628418], "name" : "TEXCOORD_0"}, {"bufferView" : 0, "byteOffset" : 43668, "componentType" : 5123, "count" : 72, "type" : "SCALAR", "max" : [71], "min" : [0]}, {"bufferView" : 2, "byteOffset" : 0, "componentType" : 5126, "count" : 72, "type" : "VEC3", "max" : [195.54623413085938, -48.022117614746094, 91.11128997802734], "min" : [-195.54620361328125, -168.59832763671875, 3.344557046890259], "name" : "POSITION"}, {"bufferView" : 2, "byteOffset" : 12, "componentType" : 5126, "count" : 72, "type" : "VEC3", "max" : [0.6579170227050781, 0.9512456655502319, 0.6406924724578857], "min" : [-0.6579228639602661, -0.8929104804992676, -0.8494824767112732], "name" : "NORMAL"}, {"bufferView" : 2, "byteOffset" : 24, "componentType" : 5126, "count" : 72, "type" : "VEC2", "max" : [1.4667969942092896, -0.1835939884185791], "min" : [-0.08007799834012985, -0.7900389432907104], "name" : "TEXCOORD_0"}], "asset" : {"generator" : "Aspose.3D 23.6.0", "version" : "2.0"}, "buffers" : [{"uri" : "data:application/octet-stream;base64,", "byteLength" : 744816}], "bufferViews" : [{"buffer" : 0, "byteOffset" : 0, "byteLength" : 43812, "target" : 34963}, {"buffer" : 0, "byteOffset" : 43816, "byteLength" : 698688, "byteStride" : 32, "target" : 34962}, {"buffer" : 0, "byteOffset" : 742508, "byteLength" : 2304, "byteStride" : 32, "target" : 34962}], "images" : [{"uri" : "data:image/png;base64,"}], "materials" : [{"name" : "Mat_2", "extensions" : {"KHR_materials_specular" : {"specularColorFactor" : [0, 0, 0]}, "KHR_materials_ior" : {"ior" : 1.4500000476837158}}, "pbrMetallicRoughness" : {"baseColorFactor" : [1, 1, 1, 1], "baseColorTexture" : {"index" : 0, "texCoord" : 0}, "metallicFactor" : 0, "roughnessFactor" : 1}, "emissiveFactor" : [0, 0, 0], "alphaMode" : "OPAQUE", "doubleSided" : true}, {"name" : "Mat_1", "extensions" : {"KHR_materials_specular" : {"specularColorFactor" : [0, 0, 0]}, "KHR_materials_ior" : {"ior" : 1.4500000476837158}}, "pbrMetallicRoughness" : {"baseColorFactor" : [0.800000011920929, 0.800000011920929, 0.800000011920929, 1], "metallicFactor" : 0, "roughnessFactor" : 1}, "emissiveFactor" : [0, 0, 0], "alphaMode" : "OPAQUE", "doubleSided" : true}], "meshes" : [{"primitives" : [{"attributes" : {"POSITION" : 1, "NORMAL" : 2, "TEXCOORD_0" : 3}, "indices" : 0, "material" : 0, "mode" : 4}, {"attributes" : {"POSITION" : 5, "NORMAL" : 6, "TEXCOORD_0" : 7}, "indices" : 4, "material" : 1, "mode" : 4}]}], "nodes" : [{"matrix" : [1, 0, 0, 0, 0, -1.3435885648505064E-07, 0.9999999657714511, 0, 0, -0.9999999657714511, -1.3435885648505064E-07, 0, 0, 0, 0, 1], "mesh" : 0, "name" : "Quarren Coyote Ship"}], "samplers" : [{"magFilter" : 9729, "minFilter" : 9987, "wrapS" : 10497, "wrapT" : 10497}], "scene" : 0, "scenes" : [{"nodes" : [0]}], "textures" : [{"sampler" : 0, "source" : 0, "name" : ""}]}