{"accessors" : [{"bufferView" : 0, "byteOffset" : 0, "componentType" : 5123, "count" : 504, "type" : "SCALAR", "max" : [414], "min" : [0]}, {"bufferView" : 1, "byteOffset" : 0, "componentType" : 5126, "count" : 415, "type" : "VEC3", "max" : [0.3240201771259308, 3.578580856323242, 2.024019241333008], "min" : [-0.3240201771259308, 3.36580491065979, 1.6382921934127808], "name" : "POSITION"}, {"bufferView" : 1, "byteOffset" : 12, "componentType" : 5126, "count" : 415, "type" : "VEC3", "max" : [0.9347557425498962, 0.8985493779182434, 0.9471094012260437], "min" : [-0.9347557425498962, -0.3987455666065216, 0.24475568532943726], "name" : "NORMAL"}, {"bufferView" : 1, "byteOffset" : 24, "componentType" : 5126, "count" : 415, "type" : "VEC2", "max" : [0.48850998282432556, -1.8200099468231201], "min" : [0.011487999930977821, -1.9163098335266113], "name" : "TEXCOORD_0"}, {"bufferView" : 0, "byteOffset" : 1008, "componentType" : 5123, "count" : 8706, "type" : "SCALAR", "max" : [7412], "min" : [0]}, {"bufferView" : 2, "byteOffset" : 0, "componentType" : 5126, "count" : 7413, "type" : "VEC3", "max" : [1.3948816061019897, 3.5688271522521973, 1.238752841949463], "min" : [-1.3948866128921509, -0.07667599618434906, -5.611597061157227], "name" : "POSITION"}, {"bufferView" : 2, "byteOffset" : 12, "componentType" : 5126, "count" : 7413, "type" : "VEC3", "max" : [0.9968441128730774, 0.9989382028579712, 0.9998955726623535], "min" : [-0.9968452453613281, -0.9999955296516418, -0.9999520182609558], "name" : "NORMAL"}, {"bufferView" : 2, "byteOffset" : 24, "componentType" : 5126, "count" : 7413, "type" : "VEC2", "max" : [1, 0.9960939884185791], "min" : [0, 0.0039060115814208984], "name" : "TEXCOORD_0"}, {"bufferView" : 0, "byteOffset" : 18420, "componentType" : 5123, "count" : 8652, "type" : "SCALAR", "max" : [7466], "min" : [0]}, {"bufferView" : 3, "byteOffset" : 0, "componentType" : 5126, "count" : 7467, "type" : "VEC3", "max" : [3.142437219619751, 4.337888240814209, 2.3028199672698975], "min" : [-3.142437219619751, 1.6421657800674438, -1.2216612100601196], "name" : "POSITION"}, {"bufferView" : 3, "byteOffset" : 12, "componentType" : 5126, "count" : 7467, "type" : "VEC3", "max" : [0.9996143579483032, 0.9999545216560364, 0.9978606104850769], "min" : [-0.9996143579483032, -1.0000044107437134, -0.9863752126693726], "name" : "NORMAL"}, {"bufferView" : 3, "byteOffset" : 24, "componentType" : 5126, "count" : 7467, "type" : "VEC2", "max" : [1, -0.003909945487976074], "min" : [0, -0.9924099445343018], "name" : "TEXCOORD_0"}, {"bufferView" : 0, "byteOffset" : 35724, "componentType" : 5123, "count" : 456, "type" : "SCALAR", "max" : [372], "min" : [0]}, {"bufferView" : 4, "byteOffset" : 0, "componentType" : 5126, "count" : 373, "type" : "VEC3", "max" : [0.32996124029159546, 1.7483861446380615, -5.321096897125244], "min" : [-0.32989266514778137, 0.2566949427127838, -5.896000385284424], "name" : "POSITION"}, {"bufferView" : 4, "byteOffset" : 12, "componentType" : 5126, "count" : 373, "type" : "VEC3", "max" : [0.9990377426147461, 0.9999986886978149, 0.9990378618240356], "min" : [-0.999037504196167, -1.0000044107437134, -0.9990378618240356], "name" : "NORMAL"}, {"bufferView" : 4, "byteOffset" : 24, "componentType" : 5126, "count" : 373, "type" : "VEC2", "max" : [0.9540690183639526, 0.9365789890289307], "min" : [0.012899999506771564, -0.830049991607666], "name" : "TEXCOORD_0"}, {"bufferView" : 0, "byteOffset" : 36636, "componentType" : 5123, "count" : 648, "type" : "SCALAR", "max" : [521], "min" : [0]}, {"bufferView" : 5, "byteOffset" : 0, "componentType" : 5126, "count" : 522, "type" : "VEC3", "max" : [0.36484813690185547, 1.798193097114563, -5.2411885261535645], "min" : [-0.36484813690185547, 0.20875166356563568, -5.978448867797852], "name" : "POSITION"}, {"bufferView" : 5, "byteOffset" : 12, "componentType" : 5126, "count" : 522, "type" : "VEC3", "max" : [0.9993102550506592, 1.0000044107437134, 0.9993001222610474], "min" : [-0.9993102550506592, -1.0000044107437134, -0.9993001818656921], "name" : "NORMAL"}, {"bufferView" : 5, "byteOffset" : 24, "componentType" : 5126, "count" : 522, "type" : "VEC2", "max" : [0.9978999495506287, 0.9805070161819458], "min" : [0.0019389999797567725, 0.0194929838180542], "name" : "TEXCOORD_0"}], "asset" : {"generator" : "Aspose.3D 23.6.0", "version" : "2.0"}, "buffers" : [{"uri" : "data:application/octet-stream;base64,", "byteLength" : 644868}], "bufferViews" : [{"buffer" : 0, "byteOffset" : 0, "byteLength" : 37932, "target" : 34963}, {"buffer" : 0, "byteOffset" : 37936, "byteLength" : 16128, "byteStride" : 32, "target" : 34962}, {"buffer" : 0, "byteOffset" : 54068, "byteLength" : 278592, "byteStride" : 32, "target" : 34962}, {"buffer" : 0, "byteOffset" : 332664, "byteLength" : 276864, "byteStride" : 32, "target" : 34962}, {"buffer" : 0, "byteOffset" : 609532, "byteLength" : 14592, "byteStride" : 32, "target" : 34962}, {"buffer" : 0, "byteOffset" : 624128, "byteLength" : 20736, "byteStride" : 32, "target" : 34962}], "images" : [{"uri" : "data:image/png;base64,"}, {"uri" : "data:image/png;base64,"}, {"uri" : "data:image/png;base64,"}, {"uri" : "data:image/png;base64,"}], "materials" : [{"name" : "Material__12", "pbrMetallicRoughness" : {"baseColorFactor" : [1, 1, 1, 1], "baseColorTexture" : {"index" : 0, "texCoord" : 0}, "metallicFactor" : 1, "roughnessFactor" : 0.5}, "emissiveFactor" : [0, 0, 0], "alphaMode" : "OPAQUE", "doubleSided" : true}, {"name" : "Material__13", "pbrMetallicRoughness" : {"baseColorFactor" : [1, 1, 1, 1], "baseColorTexture" : {"index" : 1, "texCoord" : 0}, "metallicFactor" : 1, "roughnessFactor" : 0.5}, "emissiveFactor" : [0, 0, 0], "alphaMode" : "OPAQUE", "doubleSided" : true}, {"name" : "Material__14", "pbrMetallicRoughness" : {"baseColorFactor" : [1, 1, 1, 1], "baseColorTexture" : {"index" : 2, "texCoord" : 0}, "metallicFactor" : 1, "roughnessFactor" : 0.5}, "emissiveFactor" : [0, 0, 0], "alphaMode" : "OPAQUE", "doubleSided" : true}, {"name" : "Material__15", "pbrMetallicRoughness" : {"baseColorFactor" : [1, 1, 1, 1], "baseColorTexture" : {"index" : 3, "texCoord" : 0}, "metallicFactor" : 1, "roughnessFactor" : 0.5}, "emissiveFactor" : [0, 0, 0], "alphaMode" : "OPAQUE", "doubleSided" : true}, {"name" : "Material__16", "pbrMetallicRoughness" : {"baseColorFactor" : [1, 1, 1, 1], "metallicFactor" : 1, "roughnessFactor" : 0.5}, "emissiveFactor" : [0, 0, 0], "alphaMode" : "OPAQUE", "doubleSided" : true}], "meshes" : [{"primitives" : [{"attributes" : {"POSITION" : 1, "NORMAL" : 2, "TEXCOORD_0" : 3}, "indices" : 0, "material" : 0, "mode" : 4}, {"attributes" : {"POSITION" : 5, "NORMAL" : 6, "TEXCOORD_0" : 7}, "indices" : 4, "material" : 1, "mode" : 4}, {"attributes" : {"POSITION" : 9, "NORMAL" : 10, "TEXCOORD_0" : 11}, "indices" : 8, "material" : 2, "mode" : 4}, {"attributes" : {"POSITION" : 13, "NORMAL" : 14, "TEXCOORD_0" : 15}, "indices" : 12, "material" : 3, "mode" : 4}, {"attributes" : {"POSITION" : 17, "NORMAL" : 18, "TEXCOORD_0" : 19}, "indices" : 16, "material" : 4, "mode" : 4}]}], "nodes" : [{"mesh" : 0, "name" : "Charizard"}, {"children" : [0], "matrix" : [0.02539999969303608, 0, 0, 0, 0, 0.02539999969303608, 0, 0, 0, 0, 0.02539999969303608, 0, 0, 0, 0, 1], "name" : "Armature"}], "samplers" : [{"magFilter" : 9729, "minFilter" : 9987, "wrapS" : 10497, "wrapT" : 10497}, {"magFilter" : 9729, "minFilter" : 9987, "wrapS" : 10497, "wrapT" : 10497}, {"magFilter" : 9729, "minFilter" : 9987, "wrapS" : 10497, "wrapT" : 10497}, {"magFilter" : 9729, "minFilter" : 9987, "wrapS" : 10497, "wrapT" : 10497}], "scene" : 0, "scenes" : [{"nodes" : [1]}], "textures" : [{"sampler" : 0, "source" : 0, "name" : ""}, {"sampler" : 1, "source" : 1, "name" : ""}, {"sampler" : 2, "source" : 2, "name" : ""}, {"sampler" : 3, "source" : 3, "name" : ""}]}