{"accessors" : [{"bufferView" : 0, "byteOffset" : 0, "componentType" : 5123, "count" : 3000, "type" : "SCALAR", "max" : [2432], "min" : [0]}, {"bufferView" : 1, "byteOffset" : 0, "componentType" : 5126, "count" : 2433, "type" : "VEC3", "max" : [1.7492464780807495, 0.6306523084640503, 0.3507683277130127], "min" : [-1.3310238122940063, -0.18382859230041504, -0.3497239351272583], "name" : "POSITION"}, {"bufferView" : 1, "byteOffset" : 12, "componentType" : 5126, "count" : 2433, "type" : "VEC3", "max" : [1.0000044107437134, 1.0000044107437134, 1.0000044107437134], "min" : [-1.0000044107437134, -1.0000044107437134, -1.0000044107437134], "name" : "NORMAL"}, {"bufferView" : 1, "byteOffset" : 24, "componentType" : 5126, "count" : 2433, "type" : "VEC2", "max" : [0.9988778829574585, 0.9970152974128723], "min" : [0.005910191219300032, 0.0016706585884094238], "name" : "TEXCOORD_0"}, {"bufferView" : 0, "byteOffset" : 6000, "componentType" : 5123, "count" : 804, "type" : "SCALAR", "max" : [655], "min" : [0]}, {"bufferView" : 2, "byteOffset" : 0, "componentType" : 5126, "count" : 656, "type" : "VEC3", "max" : [0.23448264598846436, 0.15463459491729736, 0.6172598600387573], "min" : [-0.1615198254585266, -1.4612056016921997, -0.6172598600387573], "name" : "POSITION"}, {"bufferView" : 2, "byteOffset" : 12, "componentType" : 5126, "count" : 656, "type" : "VEC3", "max" : [0.948451817035675, 1.0000044107437134, 1.0000044107437134], "min" : [-0.9948196411132812, -0.9659586548805237, -1.0000044107437134], "name" : "NORMAL"}, {"bufferView" : 2, "byteOffset" : 24, "componentType" : 5126, "count" : 656, "type" : "VEC2", "max" : [0.9967403411865234, 0.9545868635177612], "min" : [0.037630509585142136, 0.0008474588394165039], "name" : "TEXCOORD_0"}, {"bufferView" : 0, "byteOffset" : 7608, "componentType" : 5123, "count" : 444, "type" : "SCALAR", "max" : [363], "min" : [0]}, {"bufferView" : 3, "byteOffset" : 0, "componentType" : 5126, "count" : 364, "type" : "VEC3", "max" : [0.5739171504974365, 0.0004290342330932617, 0.07292616367340088], "min" : [-0.5303027033805847, -0.7492232322692871, -0.07292616367340088], "name" : "POSITION"}, {"bufferView" : 3, "byteOffset" : 12, "componentType" : 5126, "count" : 364, "type" : "VEC3", "max" : [0.9862338304519653, 1.0000040531158447, 0.707110583782196], "min" : [-0.8057950139045715, -0.9885333180427551, -0.707110583782196], "name" : "NORMAL"}, {"bufferView" : 3, "byteOffset" : 24, "componentType" : 5126, "count" : 364, "type" : "VEC2", "max" : [0.9753097891807556, 0.9604656100273132], "min" : [0.0014282588381320238, 0.3296400308609009], "name" : "TEXCOORD_0"}, {"bufferView" : 0, "byteOffset" : 8496, "componentType" : 5123, "count" : 8424, "type" : "SCALAR", "max" : [6786], "min" : [0]}, {"bufferView" : 4, "byteOffset" : 0, "componentType" : 5126, "count" : 6787, "type" : "VEC3", "max" : [6.693394184112549, 1.088545560836792, 0.19712691009044647], "min" : [-3.118333339691162, -0.816759467124939, -0.19713875651359558], "name" : "POSITION"}, {"bufferView" : 4, "byteOffset" : 12, "componentType" : 5126, "count" : 6787, "type" : "VEC3", "max" : [0.9989491105079651, 1.0000044107437134, 1.0000044107437134], "min" : [-0.9997064471244812, -1.0000044107437134, -1.0000044107437134], "name" : "NORMAL"}, {"bufferView" : 4, "byteOffset" : 24, "componentType" : 5126, "count" : 6787, "type" : "VEC2", "max" : [0.9972029328346252, 0.9995098114013672], "min" : [0.003889311570674181, 0.0994948148727417], "name" : "TEXCOORD_0"}], "asset" : {"generator" : "Aspose.3D 23.6.0", "version" : "2.0"}, "buffers" : [{"uri" : "data:application/octet-stream;base64,", "byteLength" : 430868}], "bufferViews" : [{"buffer" : 0, "byteOffset" : 0, "byteLength" : 25344, "target" : 34963}, {"buffer" : 0, "byteOffset" : 25348, "byteLength" : 96000, "byteStride" : 32, "target" : 34962}, {"buffer" : 0, "byteOffset" : 121352, "byteLength" : 25728, "byteStride" : 32, "target" : 34962}, {"buffer" : 0, "byteOffset" : 147084, "byteLength" : 14208, "byteStride" : 32, "target" : 34962}, {"buffer" : 0, "byteOffset" : 161296, "byteLength" : 269568, "byteStride" : 32, "target" : 34962}], "images" : [{"uri" : "data:image/jpeg;base64,"}], "materials" : [{"name" : "KSR29sniperrifle", "pbrMetallicRoughness" : {"baseColorFactor" : [1, 1, 1, 1], "baseColorTexture" : {"index" : 0, "texCoord" : 0}, "metallicFactor" : 0, "roughnessFactor" : 0.5}, "emissiveFactor" : [0, 0, 0], "alphaMode" : "OPAQUE", "doubleSided" : true}, {"name" : "KSR29sniperrifle", "pbrMetallicRoughness" : {"baseColorFactor" : [1, 1, 1, 1], "baseColorTexture" : {"index" : 0, "texCoord" : 0}, "metallicFactor" : 0, "roughnessFactor" : 0.5}, "emissiveFactor" : [0, 0, 0], "alphaMode" : "OPAQUE", "doubleSided" : true}, {"name" : "KSR29sniperrifle", "pbrMetallicRoughness" : {"baseColorFactor" : [1, 1, 1, 1], "baseColorTexture" : {"index" : 0, "texCoord" : 0}, "metallicFactor" : 0, "roughnessFactor" : 0.5}, "emissiveFactor" : [0, 0, 0], "alphaMode" : "OPAQUE", "doubleSided" : true}, {"name" : "KSR29sniperrifle", "pbrMetallicRoughness" : {"baseColorFactor" : [1, 1, 1, 1], "baseColorTexture" : {"index" : 0, "texCoord" : 0}, "metallicFactor" : 0, "roughnessFactor" : 0.5}, "emissiveFactor" : [0, 0, 0], "alphaMode" : "OPAQUE", "doubleSided" : true}], "meshes" : [{"primitives" : [{"attributes" : {"POSITION" : 1, "NORMAL" : 2, "TEXCOORD_0" : 3}, "indices" : 0, "material" : 0, "mode" : 4}]}, {"primitives" : [{"attributes" : {"POSITION" : 5, "NORMAL" : 6, "TEXCOORD_0" : 7}, "indices" : 4, "material" : 1, "mode" : 4}]}, {"primitives" : [{"attributes" : {"POSITION" : 9, "NORMAL" : 10, "TEXCOORD_0" : 11}, "indices" : 8, "material" : 2, "mode" : 4}]}, {"primitives" : [{"attributes" : {"POSITION" : 13, "NORMAL" : 14, "TEXCOORD_0" : 15}, "indices" : 12, "material" : 3, "mode" : 4}]}], "nodes" : [{"matrix" : [1, 0, 0, 0, 0, 1, 0, 0, 0, 0, 1, 0, -1.4281295537948608, 1.8511816263198853, 0, 1], "mesh" : 0, "name" : "Cube.003"}, {"matrix" : [1, 0, 0, 0, 0, 1, 0, 0, 0, 0, 1, 0, 1.0548977851867676, -1.0518730878829956, 0, 1], "mesh" : 1, "name" : "Cube.002"}, {"matrix" : [1, 0, 0, 0, 0, 1, 0, 0, 0, 0, 1, 0, -0.7235934138298035, -0.7857440710067749, 0, 1], "mesh" : 2, "name" : "Cube.001"}, {"matrix" : [1, 0, 0, 0, 0, 1, 0, 0, 0, 0, 1, 0, -1.8008400201797485, -0.1654321551322937, 0, 1], "mesh" : 3, "name" : "Cube"}], "samplers" : [{"magFilter" : 9729, "minFilter" : 9987, "wrapS" : 10497, "wrapT" : 10497}], "scene" : 0, "scenes" : [{"nodes" : [0, 1, 2, 3]}], "textures" : [{"sampler" : 0, "source" : 0, "name" : ""}]}